<svg width="100" height="100" viewBox="0 0 100 100" fill="none" xmlns="http://www.w3.org/2000/svg">
<g clip-path="url(#clip0_1212_8)">
<path fill-rule="evenodd" clip-rule="evenodd" d="M68.75 93.75C75.3804 93.75 81.7393 91.1161 86.4277 86.4277C91.1161 81.7393 93.75 75.3804 93.75 68.75C93.75 62.1196 91.1161 55.7607 86.4277 51.0723C81.7393 46.3839 75.3804 43.75 68.75 43.75C62.1196 43.75 55.7607 46.3839 51.0723 51.0723C46.3839 55.7607 43.75 62.1196 43.75 68.75C43.75 75.3804 46.3839 81.7393 51.0723 86.4277C55.7607 91.1161 62.1196 93.75 68.75 93.75ZM100 68.75C100 77.038 96.7076 84.9866 90.8471 90.8471C84.9866 96.7076 77.038 100 68.75 100C60.462 100 52.5134 96.7076 46.6529 90.8471C40.7924 84.9866 37.5 77.038 37.5 68.75C37.5 60.462 40.7924 52.5134 46.6529 46.6529C52.5134 40.7924 60.462 37.5 68.75 37.5C77.038 37.5 84.9866 40.7924 90.8471 46.6529C96.7076 52.5134 100 60.462 100 68.75Z" fill="#464646"/>
<path d="M6.25 0C4.5924 0 3.00269 0.65848 1.83058 1.83058C0.65848 3.00269 0 4.5924 0 6.25L0 56.25C0 57.9076 0.65848 59.4973 1.83058 60.6694C3.00269 61.8415 4.5924 62.5 6.25 62.5H31.7688C32.1354 60.3458 32.6729 58.2625 33.3813 56.25H18.75C18.75 52.9348 17.433 49.7554 15.0888 47.4112C12.7446 45.067 9.56521 43.75 6.25 43.75V18.75C9.56521 18.75 12.7446 17.433 15.0888 15.0888C17.433 12.7446 18.75 9.56521 18.75 6.25H81.25C81.25 9.56521 82.567 12.7446 84.9112 15.0888C87.2554 17.433 90.4348 18.75 93.75 18.75V40.8C96.125 42.925 98.2313 45.35 100 48.0125V6.25C100 4.5924 99.3415 3.00269 98.1694 1.83058C96.9973 0.65848 95.4076 0 93.75 0L6.25 0Z" fill="#464646"/>
<path d="M62.4875 31.7687L62.5 31.25C62.4987 29.0974 61.9416 26.9817 60.8826 25.1077C59.8236 23.2336 58.2986 21.6649 56.4552 20.5532C54.6119 19.4416 52.5128 18.8248 50.3612 18.7627C48.2095 18.7005 46.0782 19.195 44.1738 20.1983C42.2694 21.2015 40.6563 22.6796 39.4908 24.4894C38.3253 26.2991 37.6469 28.3791 37.5213 30.528C37.3957 32.6769 37.8271 34.8218 38.7738 36.755C39.7205 38.6882 41.1504 40.3442 42.925 41.5625C48.3275 36.4261 55.1382 33.0164 62.4875 31.7687Z" fill="#464646"/>
<path d="M59.75 79H53.4659V58.6364H60.0284C62.0038 58.6364 63.6941 59.044 65.0994 59.8594C66.5047 60.6681 67.5819 61.8314 68.331 63.3494C69.08 64.8608 69.4545 66.6705 69.4545 68.7784C69.4545 70.8996 69.0767 72.7259 68.321 74.2571C67.5653 75.7817 66.465 76.955 65.0199 77.777C63.5748 78.5923 61.8182 79 59.75 79ZM55.9318 76.8125H59.5909C61.2746 76.8125 62.67 76.4877 63.777 75.8381C64.884 75.1884 65.7093 74.2637 66.2528 73.0639C66.7964 71.8641 67.0682 70.4356 67.0682 68.7784C67.0682 67.1345 66.7997 65.7192 66.2628 64.5327C65.7259 63.3395 64.9238 62.4247 63.8565 61.7884C62.7893 61.1454 61.4602 60.8239 59.8693 60.8239H55.9318V76.8125ZM71.6296 60.8239V58.6364H86.9023V60.8239H80.4989V79H78.033V60.8239H71.6296Z" fill="#464646"/>
</g>
<defs>
<clipPath id="clip0_1212_8">
<rect width="100" height="100" fill="white"/>
</clipPath>
</defs>
</svg>
