<svg width="100" height="100" viewBox="0 0 100 100" fill="none" xmlns="http://www.w3.org/2000/svg">
<g clip-path="url(#clip0_57_20)">
<path d="M27.5375 8.3875C33.7843 3.00084 41.7515 0.0258657 50 0C66.8125 0 80.7688 12.5 82.2875 28.6187C92.2375 30.025 100 38.3562 100 48.5812C100 59.8062 90.6375 68.75 79.2938 68.75H62.5C61.6712 68.75 60.8763 68.4208 60.2903 67.8347C59.7042 67.2487 59.375 66.4538 59.375 65.625C59.375 64.7962 59.7042 64.0013 60.2903 63.4153C60.8763 62.8292 61.6712 62.5 62.5 62.5H79.3C87.3687 62.5 93.75 56.175 93.75 48.5812C93.75 40.9812 87.375 34.6563 79.2938 34.6563H76.1688V31.5313C76.175 17.6563 64.55 6.25 50 6.25C43.2492 6.27697 36.7303 8.71521 31.6188 13.125C26.8875 17.2 24.4125 22.1125 24.4125 25.9688V28.7688L21.6312 29.075C12.9 30.0312 6.25 37.2 6.25 45.7375C6.25 54.9062 13.9375 62.5 23.6312 62.5H37.5C38.3288 62.5 39.1237 62.8292 39.7097 63.4153C40.2958 64.0013 40.625 64.7962 40.625 65.625C40.625 66.4538 40.2958 67.2487 39.7097 67.8347C39.1237 68.4208 38.3288 68.75 37.5 68.75H23.6312C10.675 68.75 0 58.5375 0 45.7375C0 34.7187 7.9125 25.5937 18.3875 23.2812C19.2812 17.8875 22.75 12.5125 27.5375 8.3875Z" fill="white"/>
<path d="M47.7875 99.0875C48.0778 99.3785 48.4226 99.6094 48.8023 99.767C49.1819 99.9245 49.5889 100.006 50 100.006C50.411 100.006 50.818 99.9245 51.1977 99.767C51.5773 99.6094 51.9222 99.3785 52.2125 99.0875L70.9625 80.3375C71.5493 79.7507 71.8789 78.9548 71.8789 78.125C71.8789 77.2952 71.5493 76.4993 70.9625 75.9125C70.3757 75.3257 69.5798 74.9961 68.75 74.9961C67.9201 74.9961 67.1243 75.3257 66.5375 75.9125L53.125 89.3313V34.375C53.125 33.5462 52.7957 32.7513 52.2097 32.1653C51.6236 31.5792 50.8288 31.25 50 31.25C49.1712 31.25 48.3763 31.5792 47.7903 32.1653C47.2042 32.7513 46.875 33.5462 46.875 34.375V89.3313L33.4625 75.9125C32.8757 75.3257 32.0798 74.9961 31.25 74.9961C30.4201 74.9961 29.6243 75.3257 29.0375 75.9125C28.4507 76.4993 28.121 77.2952 28.121 78.125C28.121 78.9548 28.4507 79.7507 29.0375 80.3375L47.7875 99.0875Z" fill="white"/>
</g>
<defs>
<clipPath id="clip0_57_20">
<rect width="100" height="100" fill="white"/>
</clipPath>
</defs>
</svg>
