<svg width="100" height="100" viewBox="0 0 100 100" fill="none" xmlns="http://www.w3.org/2000/svg">
<path d="M25 9.375H18.75C15.4348 9.375 12.2554 10.692 9.91117 13.0362C7.56696 15.3804 6.25 18.5598 6.25 21.875V87.5C6.25 90.8152 7.56696 93.9946 9.91117 96.3388C12.2554 98.683 15.4348 100 18.75 100H81.25C84.5652 100 87.7446 98.683 90.0888 96.3388C92.433 93.9946 93.75 90.8152 93.75 87.5V21.875C93.75 18.5598 92.433 15.3804 90.0888 13.0362C87.7446 10.692 84.5652 9.375 81.25 9.375H75V15.625H81.25C82.9076 15.625 84.4973 16.2835 85.6694 17.4556C86.8415 18.6277 87.5 20.2174 87.5 21.875V87.5C87.5 89.1576 86.8415 90.7473 85.6694 91.9194C84.4973 93.0915 82.9076 93.75 81.25 93.75H18.75C17.0924 93.75 15.5027 93.0915 14.3306 91.9194C13.1585 90.7473 12.5 89.1576 12.5 87.5V21.875C12.5 20.2174 13.1585 18.6277 14.3306 17.4556C15.5027 16.2835 17.0924 15.625 18.75 15.625H25V9.375Z" fill="#464646"/>
<path d="M59.375 6.25C60.2038 6.25 60.9987 6.57924 61.5847 7.16529C62.1708 7.75134 62.5 8.5462 62.5 9.375V15.625C62.5 16.4538 62.1708 17.2487 61.5847 17.8347C60.9987 18.4208 60.2038 18.75 59.375 18.75H40.625C39.7962 18.75 39.0013 18.4208 38.4153 17.8347C37.8292 17.2487 37.5 16.4538 37.5 15.625V9.375C37.5 8.5462 37.8292 7.75134 38.4153 7.16529C39.0013 6.57924 39.7962 6.25 40.625 6.25H59.375ZM40.625 0C38.1386 0 35.754 0.98772 33.9959 2.74587C32.2377 4.50403 31.25 6.8886 31.25 9.375V15.625C31.25 18.1114 32.2377 20.496 33.9959 22.2541C35.754 24.0123 38.1386 25 40.625 25H59.375C61.8614 25 64.246 24.0123 66.0041 22.2541C67.7623 20.496 68.75 18.1114 68.75 15.625V9.375C68.75 6.8886 67.7623 4.50403 66.0041 2.74587C64.246 0.98772 61.8614 0 59.375 0L40.625 0Z" fill="#464646"/>
<path fill-rule="evenodd" clip-rule="evenodd" d="M50 76C55.3043 76 60.3914 73.8929 64.1421 70.1421C67.8929 66.3914 70 61.3043 70 56C70 50.6957 67.8929 45.6086 64.1421 41.8579C60.3914 38.1071 55.3043 36 50 36C44.6957 36 39.6086 38.1071 35.8579 41.8579C32.1071 45.6086 30 50.6957 30 56C30 61.3043 32.1071 66.3914 35.8579 70.1421C39.6086 73.8929 44.6957 76 50 76ZM75 56C75 62.6304 72.3661 68.9893 67.6777 73.6777C62.9893 78.3661 56.6304 81 50 81C43.3696 81 37.0107 78.3661 32.3223 73.6777C27.6339 68.9893 25 62.6304 25 56C25 49.3696 27.6339 43.0107 32.3223 38.3223C37.0107 33.6339 43.3696 31 50 31C56.6304 31 62.9893 33.6339 67.6777 38.3223C72.3661 43.0107 75 49.3696 75 56Z" fill="#464646"/>
<path d="M43.4205 64H38.2642V49.4545H43.4631C44.9261 49.4545 46.1856 49.7457 47.2415 50.3281C48.2973 50.9058 49.1094 51.7367 49.6776 52.821C50.2505 53.9053 50.5369 55.2027 50.5369 56.7131C50.5369 58.2282 50.2505 59.5303 49.6776 60.6193C49.1094 61.7083 48.2926 62.544 47.2273 63.1264C46.1667 63.7088 44.8977 64 43.4205 64ZM41.3395 61.3651H43.2926C44.2017 61.3651 44.9664 61.2041 45.5866 60.8821C46.2116 60.5554 46.6804 60.0511 46.9929 59.3693C47.3101 58.6828 47.4688 57.7973 47.4688 56.7131C47.4688 55.6383 47.3101 54.7599 46.9929 54.0781C46.6804 53.3963 46.214 52.8944 45.5938 52.5724C44.9735 52.2505 44.2088 52.0895 43.2997 52.0895H41.3395V61.3651ZM51.5969 51.9901V49.4545H63.543V51.9901H59.0898V64H56.0501V51.9901H51.5969Z" fill="#464646"/>
</svg>
