<svg width="20" height="20" viewBox="0 0 20 20" fill="none" xmlns="http://www.w3.org/2000/svg">
<g id="edit-2">
<path id="Vector" d="M14.1666 2.5009C14.3855 2.28203 14.6453 2.10842 14.9313 1.98996C15.2173 1.87151 15.5238 1.81055 15.8333 1.81055C16.1428 1.81055 16.4493 1.87151 16.7353 1.98996C17.0213 2.10842 17.2811 2.28203 17.5 2.5009C17.7188 2.71977 17.8924 2.97961 18.0109 3.26558C18.1294 3.55154 18.1903 3.85804 18.1903 4.16757C18.1903 4.4771 18.1294 4.7836 18.0109 5.06956C17.8924 5.35553 17.7188 5.61537 17.5 5.83424L6.24996 17.0842L1.66663 18.3342L2.91663 13.7509L14.1666 2.5009Z" stroke="#004D7A" stroke-width="1.5" stroke-linecap="round" stroke-linejoin="round"/>
</g>
</svg>
