<svg width="24" height="24" viewBox="0 0 24 24" fill="none" xmlns="http://www.w3.org/2000/svg">
<g id="engineer" clip-path="url(#clip0_196_431)">
<path id="Vector" d="M20 21V19C20 17.9391 19.5786 16.9217 18.8284 16.1716C18.0783 15.4214 17.0609 15 16 15H8C6.93913 15 5.92172 15.4214 5.17157 16.1716C4.42143 16.9217 4 17.9391 4 19V21" stroke="#656565" stroke-width="1.5" stroke-linecap="round" stroke-linejoin="round"/>
<path id="Vector_2" d="M12.4164 12.1359C11.1271 12.1359 10.0516 11.7051 9.19005 10.8436C8.32849 9.98202 7.89771 8.84834 7.89771 7.44253H7.5799C7.4122 7.44253 7.27363 7.3878 7.16418 7.27835C7.05473 7.1689 7 7.03083 7 6.86414C7 6.69544 7.05473 6.55687 7.16418 6.44842C7.27363 6.33997 7.4122 6.28474 7.5799 6.28273H7.89771C7.93687 5.52058 8.09754 4.82772 8.3797 4.20414C8.66087 3.58056 9.11826 2.98611 9.75187 2.42077V3.85168C9.75187 4.01938 9.8066 4.15745 9.91605 4.2659C10.0245 4.37635 10.1631 4.43158 10.3318 4.43158C10.4995 4.43158 10.638 4.37635 10.7475 4.2659C10.8559 4.15745 10.9102 4.01938 10.9102 3.85168V1.87552C11.117 1.80021 11.351 1.73393 11.6121 1.6767C11.8731 1.62046 12.1413 1.59235 12.4164 1.59235C12.6915 1.59235 12.9601 1.62046 13.2222 1.6767C13.4833 1.73393 13.7168 1.80021 13.9226 1.87552V3.85168C13.9226 4.01938 13.9778 4.15795 14.0883 4.2674C14.1967 4.37585 14.3348 4.43008 14.5025 4.43008C14.6702 4.43008 14.8088 4.37535 14.9182 4.2659C15.0277 4.15745 15.0824 4.01938 15.0824 3.85168V2.42077C15.7351 2.98611 16.197 3.58056 16.4681 4.20414C16.7413 4.82772 16.8969 5.52058 16.9351 6.28273H17.2544C17.4221 6.28273 17.5607 6.33796 17.6701 6.44842C17.7796 6.55888 17.8343 6.69745 17.8343 6.86414C17.8343 7.03183 17.7791 7.1704 17.6686 7.27985C17.5581 7.38931 17.4201 7.44353 17.2544 7.44253H16.9351C16.9351 8.84834 16.5048 9.98202 15.6442 10.8436C14.7827 11.7051 13.7067 12.1359 12.4164 12.1359ZM12.4164 10.6297C13.284 10.6297 14.0029 10.344 14.5733 9.77266C15.1437 9.2023 15.4288 8.48383 15.4288 7.61725H9.40394C9.40394 8.48383 9.68962 9.2023 10.261 9.77266C10.8313 10.344 11.5498 10.6297 12.4164 10.6297Z" fill="#464646"/>
<path id="Vector_3" d="M21 3.75C21.4142 3.75 21.75 3.41421 21.75 3C21.75 2.58579 21.4142 2.25 21 2.25C20.5858 2.25 20.25 2.58579 20.25 3C20.25 3.41421 20.5858 3.75 21 3.75Z" stroke="#464646" stroke-width="0.6" stroke-linecap="round" stroke-linejoin="round"/>
<path id="Vector_4" d="M22.85 3.75C22.8167 3.8254 22.8068 3.90905 22.8215 3.99015C22.8362 4.07125 22.8749 4.14608 22.9325 4.205L22.9475 4.22C22.994 4.26644 23.0309 4.32158 23.056 4.38228C23.0812 4.44298 23.0941 4.50804 23.0941 4.57375C23.0941 4.63946 23.0812 4.70452 23.056 4.76522C23.0309 4.82592 22.994 4.88106 22.9475 4.9275C22.9011 4.97399 22.8459 5.01087 22.7852 5.03603C22.7245 5.06119 22.6595 5.07414 22.5938 5.07414C22.528 5.07414 22.463 5.06119 22.4023 5.03603C22.3416 5.01087 22.2864 4.97399 22.24 4.9275L22.225 4.9125C22.1661 4.85487 22.0912 4.8162 22.0101 4.8015C21.929 4.78679 21.8454 4.79672 21.77 4.83C21.6961 4.86169 21.633 4.91431 21.5886 4.98138C21.5442 5.04846 21.5203 5.12705 21.52 5.2075V5.25C21.52 5.38261 21.4673 5.50979 21.3736 5.60355C21.2798 5.69732 21.1526 5.75 21.02 5.75C20.8874 5.75 20.7602 5.69732 20.6664 5.60355C20.5727 5.50979 20.52 5.38261 20.52 5.25V5.2275C20.5181 5.14475 20.4913 5.0645 20.4431 4.99718C20.395 4.92985 20.3277 4.87857 20.25 4.85C20.1746 4.81672 20.091 4.80679 20.0099 4.8215C19.9288 4.8362 19.8539 4.87487 19.795 4.9325L19.78 4.9475C19.7336 4.99399 19.6784 5.03087 19.6177 5.05603C19.557 5.08119 19.492 5.09414 19.4262 5.09414C19.3605 5.09414 19.2955 5.08119 19.2348 5.05603C19.1741 5.03087 19.1189 4.99399 19.0725 4.9475C19.026 4.90106 18.9891 4.84592 18.964 4.78522C18.9388 4.72452 18.9259 4.65946 18.9259 4.59375C18.9259 4.52804 18.9388 4.46298 18.964 4.40228C18.9891 4.34158 19.026 4.28644 19.0725 4.24L19.0875 4.225C19.1451 4.16608 19.1838 4.09125 19.1985 4.01015C19.2132 3.92905 19.2033 3.8454 19.17 3.77C19.1383 3.69606 19.0857 3.633 19.0186 3.58858C18.9515 3.54416 18.8729 3.52032 18.7925 3.52H18.75C18.6174 3.52 18.4902 3.46732 18.3964 3.37355C18.3027 3.27979 18.25 3.15261 18.25 3.02C18.25 2.88739 18.3027 2.76021 18.3964 2.66645C18.4902 2.57268 18.6174 2.52 18.75 2.52H18.7725C18.8552 2.51806 18.9355 2.49128 19.0028 2.44313C19.0701 2.39498 19.1214 2.32768 19.15 2.25C19.1833 2.1746 19.1932 2.09095 19.1785 2.00985C19.1638 1.92875 19.1251 1.85392 19.0675 1.795L19.0525 1.78C19.006 1.73356 18.9691 1.67842 18.944 1.61772C18.9188 1.55702 18.9059 1.49196 18.9059 1.42625C18.9059 1.36054 18.9188 1.29548 18.944 1.23478C18.9691 1.17408 19.006 1.11894 19.0525 1.0725C19.0989 1.02601 19.1541 0.989132 19.2148 0.96397C19.2755 0.938808 19.3405 0.925857 19.4062 0.925857C19.472 0.925857 19.537 0.938808 19.5977 0.96397C19.6584 0.989132 19.7136 1.02601 19.76 1.0725L19.775 1.0875C19.8339 1.14513 19.9088 1.1838 19.9899 1.1985C20.071 1.21321 20.1546 1.20328 20.23 1.17H20.25C20.3239 1.13831 20.387 1.08569 20.4314 1.01862C20.4758 0.951544 20.4997 0.872947 20.5 0.7925V0.75C20.5 0.617392 20.5527 0.490215 20.6464 0.396447C20.7402 0.302678 20.8674 0.25 21 0.25C21.1326 0.25 21.2598 0.302678 21.3536 0.396447C21.4473 0.490215 21.5 0.617392 21.5 0.75V0.7725C21.5003 0.852947 21.5242 0.931544 21.5686 0.998616C21.613 1.06569 21.6761 1.11831 21.75 1.15C21.8254 1.18328 21.909 1.19321 21.9901 1.1785C22.0712 1.1638 22.1461 1.12513 22.205 1.0675L22.22 1.0525C22.2664 1.00601 22.3216 0.969132 22.3823 0.94397C22.443 0.918808 22.508 0.905857 22.5738 0.905857C22.6395 0.905857 22.7045 0.918808 22.7652 0.94397C22.8259 0.969132 22.8811 1.00601 22.9275 1.0525C22.974 1.09894 23.0109 1.15408 23.036 1.21478C23.0612 1.27548 23.0741 1.34054 23.0741 1.40625C23.0741 1.47196 23.0612 1.53702 23.036 1.59772C23.0109 1.65842 22.974 1.71356 22.9275 1.76L22.9125 1.775C22.8549 1.83392 22.8162 1.90875 22.8015 1.98985C22.7868 2.07095 22.7967 2.1546 22.83 2.23V2.25C22.8617 2.32394 22.9143 2.387 22.9814 2.43142C23.0485 2.47584 23.1271 2.49968 23.2075 2.5H23.25C23.3826 2.5 23.5098 2.55268 23.6036 2.64645C23.6973 2.74021 23.75 2.86739 23.75 3C23.75 3.13261 23.6973 3.25979 23.6036 3.35355C23.5098 3.44732 23.3826 3.5 23.25 3.5H23.2275C23.1471 3.50032 23.0685 3.52416 23.0014 3.56858C22.9343 3.613 22.8817 3.67606 22.85 3.75Z" stroke="#464646" stroke-width="0.6" stroke-linecap="round" stroke-linejoin="round"/>
</g>
<defs>
<clipPath id="clip0_196_431">
<rect width="24" height="24" fill="white"/>
</clipPath>
</defs>
</svg>
