<svg width="100" height="100" viewBox="0 0 100 100" fill="none" xmlns="http://www.w3.org/2000/svg">
<g clip-path="url(#clip0_1212_16)">
<path d="M28.125 75C27.2962 75 26.5013 74.6708 25.9153 74.0847C25.3292 73.4987 25 72.7038 25 71.875V59.375C25 58.5462 25.3292 57.7513 25.9153 57.1653C26.5013 56.5792 27.2962 56.25 28.125 56.25H34.375C35.2038 56.25 35.9987 56.5792 36.5847 57.1653C37.1708 57.7513 37.5 58.5462 37.5 59.375V71.875C37.5 72.7038 37.1708 73.4987 36.5847 74.0847C35.9987 74.6708 35.2038 75 34.375 75H28.125ZM46.875 75C46.0462 75 45.2513 74.6708 44.6653 74.0847C44.0792 73.4987 43.75 72.7038 43.75 71.875V46.875C43.75 46.0462 44.0792 45.2513 44.6653 44.6653C45.2513 44.0792 46.0462 43.75 46.875 43.75H53.125C53.9538 43.75 54.7487 44.0792 55.3347 44.6653C55.9208 45.2513 56.25 46.0462 56.25 46.875V71.875C56.25 72.7038 55.9208 73.4987 55.3347 74.0847C54.7487 74.6708 53.9538 75 53.125 75H46.875ZM65.625 75C64.7962 75 64.0013 74.6708 63.4153 74.0847C62.8292 73.4987 62.5 72.7038 62.5 71.875V34.375C62.5 33.5462 62.8292 32.7513 63.4153 32.1653C64.0013 31.5792 64.7962 31.25 65.625 31.25H71.875C72.7038 31.25 73.4987 31.5792 74.0847 32.1653C74.6708 32.7513 75 33.5462 75 34.375V71.875C75 72.7038 74.6708 73.4987 74.0847 74.0847C73.4987 74.6708 72.7038 75 71.875 75H65.625Z" fill="#464646"/>
<path d="M25 0C21.6848 0 18.5054 1.31696 16.1612 3.66117C13.817 6.00537 12.5 9.18479 12.5 12.5V87.5C12.5 90.8152 13.817 93.9946 16.1612 96.3388C18.5054 98.683 21.6848 100 25 100H75C78.3152 100 81.4946 98.683 83.8388 96.3388C86.183 93.9946 87.5 90.8152 87.5 87.5V12.5C87.5 9.18479 86.183 6.00537 83.8388 3.66117C81.4946 1.31696 78.3152 0 75 0L25 0ZM25 6.25H75C76.6576 6.25 78.2473 6.90848 79.4194 8.08058C80.5915 9.25268 81.25 10.8424 81.25 12.5V87.5C81.25 89.1576 80.5915 90.7473 79.4194 91.9194C78.2473 93.0915 76.6576 93.75 75 93.75H25C23.3424 93.75 21.7527 93.0915 20.5806 91.9194C19.4085 90.7473 18.75 89.1576 18.75 87.5V12.5C18.75 10.8424 19.4085 9.25268 20.5806 8.08058C21.7527 6.90848 23.3424 6.25 25 6.25Z" fill="#464646"/>
</g>
<defs>
<clipPath id="clip0_1212_16">
<rect width="100" height="100" fill="white"/>
</clipPath>
</defs>
</svg>
