<svg width="100" height="100" viewBox="0 0 100 100" fill="none" xmlns="http://www.w3.org/2000/svg">
<g clip-path="url(#clip0_910_19)">
<path d="M68.75 37.5C68.75 42.4728 66.7746 47.2419 63.2583 50.7583C59.7419 54.2746 54.9728 56.25 50 56.25C45.0272 56.25 40.2581 54.2746 36.7417 50.7583C33.2254 47.2419 31.25 42.4728 31.25 37.5C31.25 32.5272 33.2254 27.7581 36.7417 24.2417C40.2581 20.7254 45.0272 18.75 50 18.75C54.9728 18.75 59.7419 20.7254 63.2583 24.2417C66.7746 27.7581 68.75 32.5272 68.75 37.5Z" fill="black"/>
<path d="M12.5 0C9.18479 0 6.00537 1.31696 3.66117 3.66117C1.31696 6.00537 0 9.18479 0 12.5L0 87.5C0 90.8152 1.31696 93.9946 3.66117 96.3388C6.00537 98.683 9.18479 100 12.5 100H87.5C90.8152 100 93.9946 98.683 96.3388 96.3388C98.683 93.9946 100 90.8152 100 87.5V12.5C100 9.18479 98.683 6.00537 96.3388 3.66117C93.9946 1.31696 90.8152 0 87.5 0L12.5 0ZM87.5 6.25C89.1576 6.25 90.7473 6.90848 91.9194 8.08058C93.0915 9.25268 93.75 10.8424 93.75 12.5V87.5C93.75 89.1576 93.0915 90.7473 91.9194 91.9194C90.7473 93.0915 89.1576 93.75 87.5 93.75V87.5C87.5 81.25 81.25 62.5 50 62.5C18.75 62.5 12.5 81.25 12.5 87.5V93.75C10.8424 93.75 9.25268 93.0915 8.08058 91.9194C6.90848 90.7473 6.25 89.1576 6.25 87.5V12.5C6.25 10.8424 6.90848 9.25268 8.08058 8.08058C9.25268 6.90848 10.8424 6.25 12.5 6.25H87.5Z" fill="black"/>
</g>
<defs>
<clipPath id="clip0_910_19">
<rect width="100" height="100" fill="white"/>
</clipPath>
</defs>
</svg>
