<svg width="24" height="24" viewBox="0 0 24 24" fill="none" xmlns="http://www.w3.org/2000/svg">
<g clip-path="url(#clip0_194_1880)">
<path d="M19 2.99992V4.80944M19 2.99992H21.0357M19 2.99992L18.5 2.33325M19 4.80944H21.0357M19 4.80944L18.5 5.66659M21.0357 4.80944V2.99992M21.0357 4.80944L21.5 5.66659M21.0357 2.99992L21.5 2.33325" stroke="#464646" stroke-width="0.452381"/>
<path d="M19.2619 1.7977C19.2619 1.17309 18.7556 0.666748 18.131 0.666748C17.5063 0.666748 17 1.17309 17 1.7977C17 2.42231 17.5063 2.92865 18.131 2.92865" stroke="#464646" stroke-width="0.452381" stroke-linecap="round"/>
<path d="M21.869 2.92865C22.4937 2.92865 23 2.42231 23 1.7977C23 1.17309 22.4937 0.666748 21.869 0.666748C21.2444 0.666748 20.7381 1.17309 20.7381 1.7977" stroke="#464646" stroke-width="0.452381" stroke-linecap="round"/>
<path d="M20.7381 6.2023C20.7381 6.82691 21.2444 7.33325 21.869 7.33325C22.4937 7.33325 23 6.82691 23 6.2023C23 5.57769 22.4937 5.07135 21.869 5.07135" stroke="#464646" stroke-width="0.452381" stroke-linecap="round"/>
<path d="M19.2619 6.2023C19.2619 6.82691 18.7556 7.33325 18.131 7.33325C17.5063 7.33325 17 6.82691 17 6.2023C17 5.57769 17.5063 5.07135 18.131 5.07135" stroke="#464646" stroke-width="0.452381" stroke-linecap="round"/>
<circle cx="21.6431" cy="2.02391" r="0.452381" fill="#464646"/>
<circle cx="21.6431" cy="5.97631" r="0.452381" fill="#464646"/>
<circle cx="18.3572" cy="5.97631" r="0.452381" fill="#464646"/>
<circle cx="18.3572" cy="2.02391" r="0.452381" fill="#464646"/>
<path d="M17.3334 21.25V19.4167C17.3334 18.4442 16.9471 17.5116 16.2595 16.8239C15.5718 16.1363 14.6392 15.75 13.6667 15.75H6.33342C5.36095 15.75 4.42832 16.1363 3.74069 16.8239C3.05306 17.5116 2.66675 18.4442 2.66675 19.4167V21.25" stroke="#464646" stroke-width="1.375" stroke-linecap="round" stroke-linejoin="round"/>
<path d="M9.99992 12.0833C12.025 12.0833 13.6666 10.4417 13.6666 8.41667C13.6666 6.39162 12.025 4.75 9.99992 4.75C7.97487 4.75 6.33325 6.39162 6.33325 8.41667C6.33325 10.4417 7.97487 12.0833 9.99992 12.0833Z" stroke="#464646" stroke-width="1.375" stroke-linecap="round" stroke-linejoin="round"/>
</g>
<defs>
<clipPath id="clip0_194_1880">
<rect width="24" height="24" fill="white"/>
</clipPath>
</defs>
</svg>
