<svg width="34" height="30" viewBox="0 0 34 30" fill="none" xmlns="http://www.w3.org/2000/svg">
<path d="M19.5 9H5.5C4.39543 9 3.5 9.89543 3.5 11V25C3.5 26.1046 4.39543 27 5.5 27H19.5C20.6046 27 21.5 26.1046 21.5 25V11C21.5 9.89543 20.6046 9 19.5 9Z" stroke="#7C7C7C" stroke-width="1.5" stroke-linejoin="round"/>
<path d="M9 16C9.82843 16 10.5 15.3284 10.5 14.5C10.5 13.6716 9.82843 13 9 13C8.17157 13 7.5 13.6716 7.5 14.5C7.5 15.3284 8.17157 16 9 16Z" stroke="#7C7C7C" stroke-width="1.5" stroke-linejoin="round"/>
<path d="M21.5 21L16.5 16L5.5 27" stroke="#7C7C7C" stroke-width="1.5" stroke-linejoin="round"/>
<path d="M27 2.70801V10.2913" stroke="#7C7C7C" stroke-width="1.5" stroke-linecap="round" stroke-linejoin="round"/>
<path d="M23.2083 6.5H30.7917" stroke="#7C7C7C" stroke-width="1.5" stroke-linecap="round" stroke-linejoin="round"/>
</svg>
