<svg width="24" height="24" viewBox="0 0 24 24" fill="none" xmlns="http://www.w3.org/2000/svg">
<g id="Wind">
<path id="Vector 1" d="M12.5 9.40253V6.10964C12.5 5.97703 12.5527 5.84985 12.6464 5.75609L16 2.40253C17 1.40253 18.5 2.40253 17.5 3.90253L14 9.40253" stroke="#464646" stroke-width="1.5"/>
<path id="Vector 3" d="M12 12.5L9.37731 14.1708C9.26881 14.2399 9.13783 14.2646 9.01163 14.2396L4.35261 13.318C2.96528 13.0435 2.9615 11.2407 4.76428 11.237L11.2817 11.0846" stroke="#464646" stroke-width="1.5"/>
<path id="Vector 4" d="M12.5 12.5L12.01 22.7905C12.0045 22.9045 12.0956 23 12.2098 23H13.7902C13.9044 23 13.9955 22.9045 13.99 22.7905L13.5 12.5" stroke="#464646" stroke-width="1.3"/>
<path id="Vector 2" d="M14.5 11.4025L17.0134 12.1448C17.1566 12.1871 17.2735 12.2913 17.3319 12.4287L19.1765 16.7667C19.7298 18.0682 18.2414 19.0853 17.2243 17.5968L13.4326 12.2936" stroke="#464646" stroke-width="1.5"/>
<circle id="Ellipse 2" cx="13" cy="10.9025" r="1.5" stroke="#464646"/>
</g>
</svg>
