<svg width="25" height="26" viewBox="0 0 25 26" fill="none" xmlns="http://www.w3.org/2000/svg">
<g id="Wind farm">
<path id="Vector 1" d="M20.2788 5.23002V3.34837C20.2788 3.27259 20.3089 3.19992 20.3625 3.14633L22.2788 1.23002C22.8502 0.658587 23.7074 1.23002 23.136 2.08716L21.136 5.23002" stroke="#464646" stroke-width="0.857143"/>
<path id="Vector 5" d="M8.44751 14.3403V11.7589C8.44751 11.6549 8.48881 11.5552 8.56232 11.4817L11.1913 8.85273C11.9753 8.06879 13.1512 8.85273 12.3672 10.0286L9.62343 14.3403" stroke="#464646" stroke-width="1.17592"/>
<path id="Vector 3" d="M19.9932 6.99998L18.4945 7.95474C18.4325 7.99424 18.3577 8.00832 18.2856 7.99405L15.6233 7.46739C14.8305 7.31056 14.8283 6.28041 15.8585 6.27825L19.5827 6.19121" stroke="#464646" stroke-width="0.857143"/>
<path id="Vector 6" d="M8.05545 16.7686L5.99941 18.0784C5.91435 18.1326 5.81167 18.1519 5.71273 18.1323L2.06032 17.4098C0.972733 17.1947 0.969774 15.7814 2.38305 15.7784L7.49234 15.659" stroke="#464646" stroke-width="1.17592"/>
<path id="Vector 4" d="M20.2789 7L19.9989 12.8803C19.9958 12.9455 20.0478 13 20.113 13H21.0162C21.0814 13 21.1334 12.9455 21.1303 12.8803L20.8503 7" stroke="#464646" stroke-width="0.742857"/>
<path id="Vector 7" d="M8.44739 16.7686L8.06324 24.8358C8.05898 24.9252 8.13033 25 8.21985 25H9.45888C9.5484 25 9.61974 24.9252 9.61549 24.8358L9.23134 16.7686" stroke="#464646" stroke-width="1.01913"/>
<path id="Vector 2" d="M21.4215 6.37285L22.8578 6.79703C22.9396 6.8212 23.0064 6.8807 23.0398 6.95924L24.0938 9.43811C24.41 10.1818 23.5595 10.763 22.9783 9.91243L20.8116 6.88207" stroke="#464646" stroke-width="0.857143"/>
<path id="Vector 8" d="M10.015 15.9082L11.9854 16.4901C12.0977 16.5233 12.1892 16.6049 12.2351 16.7127L13.6811 20.1134C14.1149 21.1337 12.948 21.931 12.1507 20.7642L9.17822 16.6068" stroke="#464646" stroke-width="1.17592"/>
<circle id="Ellipse 2" cx="20.5646" cy="6.08718" r="0.857143" stroke="#464646" stroke-width="0.571429"/>
<circle id="Ellipse 3" cx="8.83936" cy="15.5162" r="1.17592" stroke="#464646" stroke-width="0.783944"/>
</g>
</svg>
